<svg width="32.000000" height="32.000000" viewBox="0 0 32 32" fill="none" xmlns="http://www.w3.org/2000/svg" xmlns:xlink="http://www.w3.org/1999/xlink">
	<desc>
			Created with Pixso.
	</desc>
	<defs/>
	<rect rx="7.000000" width="32.000000" height="32.000000" fill="#FEF0F0"/>
	<path d="M22.5849 12.2231C22.3615 11.7098 22.0393 11.2446 21.6365 10.8536C21.2333 10.4615 20.758 10.1499 20.2363 9.93573C19.6954 9.71277 19.1152 9.59866 18.5295 9.59998C17.7077 9.59998 16.906 9.82327 16.2092 10.245C16.0425 10.3459 15.8842 10.4567 15.7341 10.5775C15.5841 10.4567 15.4258 10.3459 15.2591 10.245C14.5623 9.82327 13.7606 9.59998 12.9388 9.59998C12.3471 9.59998 11.7737 9.71246 11.232 9.93573C10.7086 10.1507 10.2369 10.46 9.83181 10.8536C9.42842 11.2442 9.10619 11.7094 8.88337 12.2231C8.65167 12.7573 8.53333 13.3246 8.53333 13.9084C8.53333 14.4592 8.64667 15.0331 8.8717 15.6169C9.06005 16.1048 9.33008 16.6109 9.67512 17.1219C10.2219 17.9307 10.9736 18.7742 11.907 19.6293C13.4539 21.0467 14.9857 22.0258 15.0507 22.0655L15.4458 22.3169C15.6208 22.4277 15.8458 22.4277 16.0208 22.3169L16.4159 22.0655C16.4809 22.0241 18.0111 21.0467 19.5596 19.6293C20.493 18.7742 21.2448 17.9307 21.7915 17.1219C22.1366 16.6109 22.4082 16.1048 22.5949 15.6169C22.82 15.0331 22.9333 14.4592 22.9333 13.9084C22.935 13.3246 22.8166 12.7573 22.5849 12.2231Z" fill-rule="nonzero" fill="#FF8585"/>
</svg>
