<svg width="32.000000" height="32.000000" viewBox="0 0 32 32" fill="none" xmlns="http://www.w3.org/2000/svg" xmlns:xlink="http://www.w3.org/1999/xlink">
	<desc>
			Created with Pixso.
	</desc>
	<defs>
		<clipPath id="clip177855_5">
			<rect width="16.000000" height="16.000000" transform="translate(8.000000 8.000000)" fill="white"/>
		</clipPath>
	</defs>
	<rect x="0.500000" y="0.500000" rx="7.000000" width="31.000000" height="31.000000" fill="#FFFFFF"/>
	<rect x="0.500000" y="0.500000" rx="7.000000" width="31.000000" height="31.000000" stroke="#F8F8F8"/>
	<g clip-path="url(#clip177855_5)">
		<path d="M20.6711 10.2793C20.2261 10.0949 19.7492 10 19.2675 10C18.7859 10 18.3089 10.0949 17.864 10.2793C17.419 10.4637 17.0147 10.7339 16.6742 11.0746L15.9675 11.7812L15.2609 11.0746C14.5731 10.3867 13.6402 10.0004 12.6675 10.0004C11.6948 10.0004 10.762 10.3867 10.0742 11.0746C9.38641 11.7624 9 12.6952 9 13.6679C9 14.6406 9.38641 15.5734 10.0742 16.2612L10.7809 16.9679L15.9675 22.1545L21.1542 16.9679L21.8609 16.2612C22.2015 15.9207 22.4718 15.5164 22.6561 15.0714C22.8405 14.6265 22.9354 14.1495 22.9354 13.6679C22.9354 13.1862 22.8405 12.7093 22.6561 12.2643C22.4718 11.8193 22.2015 11.4151 21.8609 11.0746C21.5204 10.7339 21.1161 10.4637 20.6711 10.2793Z" stroke="#EAEAEA" stroke-width="1.200000" stroke-linejoin="round"/>
	</g>
</svg>
