<svg width="20.000000" height="19.181816" viewBox="0 0 20 19.1818" fill="none" xmlns="http://www.w3.org/2000/svg" xmlns:xlink="http://www.w3.org/1999/xlink">
	<desc>
			Created with Pixso.
	</desc>
	<defs/>
	<path d="M7.54547 18.1818C7.09363 18.1818 6.72729 17.8155 6.72729 17.3636C6.72729 16.9118 7.09363 16.5455 7.54547 16.5455C7.99738 16.5455 8.36365 16.9118 8.36365 17.3636C8.36365 17.8155 7.99738 18.1818 7.54547 18.1818Z" stroke="#9B9B9B" stroke-width="2.000000" stroke-linejoin="round"/>
	<path d="M16.5455 18.1818C16.0936 18.1818 15.7273 17.8155 15.7273 17.3636C15.7273 16.9118 16.0936 16.5455 16.5455 16.5455C16.9974 16.5455 17.3636 16.9118 17.3636 17.3636C17.3636 17.8155 16.9974 18.1818 16.5455 18.1818Z" stroke="#9B9B9B" stroke-width="2.000000" stroke-linejoin="round"/>
	<path d="M1 1L4.27271 1L6.46545 11.9555C6.54028 12.3321 6.74518 12.6705 7.04437 12.9113C7.34351 13.1522 7.71783 13.2801 8.10181 13.2727L16.0546 13.2727C16.4385 13.2801 16.8129 13.1522 17.112 12.9113C17.4112 12.6705 17.6161 12.3321 17.6909 11.9555L19 5.09091L5.09088 5.09091" stroke="#9B9B9B" stroke-width="2.000000" stroke-linejoin="round" stroke-linecap="round"/>
</svg>
